<svg width="546" height="497" viewBox="0 0 546 497" fill="none" xmlns="http://www.w3.org/2000/svg">
<path d="M508.053 181.239C510.456 190.553 509.475 200.326 505.258 209.09C505.048 209.581 504.721 210.024 504.299 210.384C503.877 210.744 503.371 211.014 502.82 211.173C502.82 213.081 498.829 232.121 497.469 240.893C501.018 244.124 504.881 254.407 503.562 262.871C499.265 290.509 453.775 293.777 423.041 294.214C421.466 299.433 414.103 328.701 411.848 338.447C404.892 368.67 401.441 390.736 399.689 397.749C398.533 400.894 398.47 404.287 399.508 407.465C399.781 408.218 400.227 408.908 400.817 409.491C401.407 410.073 402.127 410.533 402.929 410.841C403.73 411.149 404.595 411.297 405.465 411.275C406.335 411.253 407.19 411.061 407.971 410.713C412.29 408.425 416.582 388.89 416.86 387.603C423.541 356.719 427.546 333.388 432.421 304.852C430.349 305.097 428.242 304.864 426.295 304.174C426.154 304.092 426.042 303.976 425.972 303.838C425.901 303.701 425.875 303.547 425.897 303.397C425.919 303.246 425.987 303.104 426.095 302.988C426.202 302.872 426.343 302.786 426.503 302.74C427.885 302.508 429.305 302.554 430.666 302.874C438.291 303.642 465.154 304.134 480.265 303.851C490.816 303.652 502.959 301.366 505.776 292.157C506.721 289.07 532.331 219.346 532.331 204.056C532.35 188.147 520.409 178.92 508.053 181.239ZM516.38 231.04C510.311 252.526 509.648 256.961 507.608 259.976C507.543 260.069 507.446 260.14 507.332 260.179C507.219 260.218 507.094 260.222 506.978 260.192C506.861 260.161 506.758 260.098 506.685 260.01C506.611 259.922 506.57 259.815 506.568 259.705C506.695 256.871 507.246 254.066 508.206 251.368C508.88 249.009 512.847 234.368 514.272 229.415C519.096 212.726 523.09 203.087 517.573 186.273C517.538 186.165 517.548 186.05 517.601 185.948C517.654 185.846 517.746 185.766 517.859 185.722C517.973 185.679 518.101 185.675 518.218 185.711C518.334 185.748 518.432 185.822 518.493 185.92C527.436 198.475 519.312 220.668 516.382 231.04H516.38Z" fill="#663398"/>
<path d="M500.652 301.386C497.286 303.22 493.541 304.404 489.65 304.865C492.495 318.721 504.755 377.298 509.631 392.506C512.047 400.033 514.509 412.567 522.358 409.26C529.819 406.116 525.304 396.375 524.143 391.151C517.608 361.694 510.291 330.232 500.652 301.386Z" fill="#663398"/>
<path d="M387.51 411.765C377.829 411.109 387.144 411.615 242.402 410.115C240.008 387.593 241.264 379.755 239.945 259.275C276.101 259.113 368.938 258.634 379.175 258.465C379.455 258.465 379.724 258.364 379.922 258.183C380.12 258.003 380.232 257.758 380.232 257.503C380.232 257.248 380.12 257.004 379.922 256.823C379.724 256.643 379.455 256.542 379.175 256.542C342.454 255.963 248.52 256.293 238.291 256.271C237.852 256.279 237.434 256.441 237.123 256.724C236.813 257.006 236.635 257.387 236.625 257.787C236.625 258.157 236.898 389.474 239.598 411.471C239.606 411.828 239.765 412.169 240.043 412.421C240.32 412.674 240.694 412.819 241.086 412.826C278.998 413.002 376.68 414.483 387.532 413.934C387.848 413.931 388.15 413.815 388.371 413.609C388.593 413.404 388.715 413.127 388.712 412.839C388.71 412.552 388.581 412.277 388.356 412.075C388.13 411.874 387.826 411.762 387.51 411.765Z" fill="#191919"/>
<path d="M381.801 259.732C381.621 258.892 380.218 259.108 380.193 259.921C380.035 265.741 381.498 274.901 383.437 316.706C384.316 335.679 386.257 401.196 386.885 406.812C386.885 407.045 386.986 407.269 387.168 407.434C387.349 407.599 387.595 407.692 387.851 407.692C388.107 407.692 388.353 407.599 388.534 407.434C388.716 407.269 388.817 407.045 388.817 406.812C388.962 401.899 386.022 279.645 381.801 259.732Z" fill="#191919"/>
<path d="M239.694 254.464C245.206 251.672 250.497 248.533 255.528 245.07C260.732 241.795 291.889 222.194 294.483 220.549C300.041 217.017 298.174 217.706 317.376 217.706C319.11 217.823 320.853 217.739 322.563 217.457C322.776 217.397 322.963 217.277 323.095 217.114C323.227 216.951 323.299 216.753 323.299 216.55C323.299 216.347 323.227 216.15 323.095 215.987C322.963 215.823 322.776 215.703 322.563 215.643C321.144 215.325 321.357 215.395 303.83 215.395C296.811 215.395 296.219 216.637 288.337 221.647C243.325 250.336 242.361 250.674 238.889 253.614C238.417 254.019 239.102 254.712 239.694 254.464Z" fill="#191919"/>
<path d="M328.397 220.402C329.964 225.041 329.677 223.178 342.609 223.488C343.62 223.598 344.644 223.562 345.642 223.381C347.553 222.855 348.099 220.944 348.793 219.455C351.798 212.974 353.887 206.171 355.009 199.21C355.058 199.03 355.063 198.843 355.022 198.661C354.982 198.48 354.897 198.309 354.775 198.161C354.652 198.013 354.495 197.892 354.315 197.806C354.134 197.721 353.935 197.673 353.731 197.667C349.655 197.667 345.541 197.639 341.446 197.612C342.131 191.66 342.459 185.679 342.429 179.695C342.415 179.469 342.324 179.252 342.17 179.074C342.016 178.896 341.805 178.766 341.566 178.701C341.271 178.63 340.956 178.666 340.689 178.802C340.423 178.939 340.225 179.165 340.139 179.432C339.77 182.478 339.63 185.543 339.721 188.606C339.563 191.62 339.613 194.639 339.871 197.647H336.303C333.595 184.086 334.247 182.21 332.942 173.773C332.83 173.043 331.607 173.262 331.577 173.937C331.397 181.911 332.235 189.877 334.075 197.674C333.529 197.674 333.035 197.674 332.5 197.701C332.5 197.468 329.729 189.004 329.467 188.201C328.629 185.18 327.515 182.229 326.137 179.377C326.066 179.274 325.961 179.194 325.837 179.148C325.713 179.103 325.577 179.095 325.447 179.125C325.318 179.155 325.202 179.222 325.118 179.316C325.033 179.41 324.983 179.527 324.976 179.648C326.091 185.798 327.792 191.847 330.06 197.729C328.842 197.756 327.622 197.776 326.434 197.811C326.094 197.825 325.772 197.958 325.537 198.182C325.302 198.406 325.17 198.705 325.17 199.015C325.17 199.325 325.302 199.623 325.537 199.847C325.772 200.072 326.094 200.205 326.434 200.219C334.998 200.38 343.559 200.219 352.123 200.109C351.018 206.905 348.939 213.539 345.94 219.843C345.642 220.464 345.468 221.155 344.632 221.334C344.029 221.461 344.815 221.252 338.744 221.252C329.634 221.252 331.435 222.4 330.567 219.845C329.857 217.76 324.643 202.316 323.469 199.95C323.052 199.113 321.796 199.762 321.954 200.547C322.328 202.45 327.775 218.561 328.397 220.402Z" fill="#191919"/>
<path d="M392.028 215.477C388.907 215.186 385.767 215.114 382.634 215.261C356.926 215.574 355.146 215.614 352.214 216.101C351.558 216.207 351.531 217.229 352.214 217.318C358.7 218.171 385.386 217.129 390.483 217.567C383.966 242.665 380.109 250.689 380.016 254.079C380.022 254.232 380.083 254.38 380.188 254.5C380.293 254.62 380.438 254.706 380.602 254.746C380.765 254.785 380.937 254.776 381.094 254.719C381.251 254.663 381.384 254.562 381.474 254.432C384.051 250.911 391.941 222.375 393.248 216.908C393.289 216.739 393.288 216.565 393.246 216.396C393.204 216.227 393.122 216.069 393.006 215.933C392.889 215.796 392.741 215.685 392.573 215.606C392.404 215.527 392.218 215.483 392.028 215.477Z" fill="#191919"/>
<path d="M286.557 232.638C287.18 232.094 286.404 231.247 285.667 231.582C279.855 234.211 269.154 243.16 264.373 247.173C264.219 247.323 264.115 247.51 264.075 247.713C264.036 247.915 264.061 248.123 264.15 248.313C264.238 248.502 264.385 248.664 264.573 248.778C264.76 248.892 264.98 248.955 265.206 248.957C269.82 249.129 307.6 250.133 315.457 249.825C315.728 249.812 315.983 249.705 316.169 249.527C316.356 249.348 316.46 249.111 316.46 248.864C316.46 248.617 316.356 248.38 316.169 248.202C315.983 248.023 315.728 247.916 315.457 247.904C307.133 247.407 298.687 247.533 290.341 247.362C282.907 247.208 275.504 246.93 268.07 246.847C276.661 239.467 282.009 236.632 286.557 232.638Z" fill="#191919"/>
<path d="M317.958 249.203C321.311 246.912 324.472 244.397 327.415 241.679C330.585 239.04 333.747 236.396 336.901 233.747C337.059 233.594 337.165 233.404 337.207 233.199C337.249 232.993 337.226 232.781 337.14 232.587C337.054 232.393 336.908 232.226 336.721 232.105C336.533 231.984 336.312 231.915 336.082 231.905C329.656 231.408 291.54 228.96 286.959 230.392C286.808 230.432 286.675 230.515 286.58 230.63C286.486 230.744 286.435 230.883 286.435 231.027C286.435 231.17 286.486 231.309 286.58 231.424C286.675 231.538 286.808 231.622 286.959 231.662C288.867 232.006 290.817 232.116 292.757 231.987C308.493 232.206 317.827 232.827 333.257 233.856C320.248 244.83 319.462 244.73 316.754 247.794C316.101 248.515 316.978 249.8 317.958 249.203Z" fill="#191919"/>
<path d="M299.522 234.37C297.237 235.794 295.342 237.295 290.483 240.945C289.62 241.594 288.67 242.084 288.373 243.112C288.344 243.209 288.339 243.311 288.36 243.409C288.38 243.508 288.425 243.601 288.491 243.682C288.556 243.762 288.641 243.828 288.739 243.875C288.837 243.921 288.945 243.947 289.055 243.95C290.322 243.888 290.947 243.224 294.676 240.406C296.765 238.912 298.705 237.254 300.475 235.451C300.994 234.894 300.3 233.886 299.522 234.37Z" fill="#191919"/>
<path d="M300.117 243.219C301.624 242.919 302.369 242.123 308.206 236.758C308.618 236.378 308.083 235.67 307.551 235.973C305.946 236.909 304.397 237.921 302.91 239.005C301.377 239.845 300.139 241.065 299.342 242.523C299.167 242.923 299.672 243.309 300.117 243.219Z" fill="#191919"/>
<path d="M315.877 235.722C313.912 237.126 312.031 238.528 310.226 240.081C308.861 241.264 306.336 242.814 305.976 244.574C305.95 244.667 305.951 244.765 305.979 244.858C306.007 244.951 306.061 245.035 306.136 245.103C306.211 245.172 306.304 245.221 306.406 245.247C306.508 245.272 306.616 245.273 306.718 245.25C308.676 244.949 310.488 242.727 311.834 241.522C313.609 239.919 315.219 238.272 316.83 236.57C316.891 236.513 316.939 236.445 316.972 236.371C317.004 236.297 317.021 236.218 317.02 236.139C317.019 236.059 317 235.981 316.966 235.907C316.932 235.834 316.882 235.768 316.819 235.712C316.757 235.657 316.683 235.613 316.601 235.583C316.52 235.553 316.433 235.539 316.346 235.54C316.259 235.541 316.172 235.557 316.092 235.588C316.011 235.62 315.938 235.665 315.877 235.722Z" fill="#191919"/>
<path d="M130.953 144.627C131.131 144.443 131.263 144.226 131.34 143.991C131.417 143.756 131.436 143.509 131.396 143.267C131.357 143.024 131.26 142.792 131.111 142.588C130.963 142.383 130.767 142.211 130.538 142.082C130.286 141.922 129.989 141.832 129.683 141.821C129.376 141.811 129.073 141.881 128.809 142.024C128.545 142.167 128.333 142.376 128.196 142.626C128.06 142.876 128.005 143.157 128.04 143.434C127.991 143.758 128.059 144.088 128.233 144.374C128.408 144.66 128.679 144.887 129.007 145.021C129.334 145.155 129.701 145.189 130.052 145.118C130.402 145.047 130.718 144.875 130.953 144.627Z" fill="#191919"/>
<path d="M158.067 177.827C156.95 177.161 155.623 176.847 154.291 176.934C149.601 176.674 144.894 177.085 140.344 178.152C139.629 178.361 139.721 179.449 140.524 179.395C153.382 178.552 156.112 179.864 157.917 179.014C158.023 178.953 158.113 178.87 158.179 178.773C158.246 178.676 158.288 178.567 158.302 178.453C158.317 178.339 158.303 178.224 158.262 178.116C158.222 178.007 158.155 177.908 158.067 177.827Z" fill="#191919"/>
<path d="M151.242 181.534C148.377 181.376 145.509 181.811 142.855 182.806C142.713 182.885 142.602 183.004 142.54 183.145C142.478 183.287 142.468 183.442 142.512 183.589C142.556 183.736 142.651 183.865 142.783 183.959C142.914 184.052 143.076 184.104 143.243 184.106C146.156 184.029 149.072 183.858 151.954 183.78C156.309 183.669 157.245 183.815 158.111 182.786C158.195 182.664 158.228 182.518 158.207 182.375C158.185 182.232 158.108 182.101 157.99 182.004C157.272 181.221 156.582 181.231 151.242 181.534Z" fill="#191919"/>
<path d="M393.308 254.698C396.418 251.801 400.255 249.636 404.488 248.391C412.287 245.806 431.444 240.96 434.343 239.676C436 238.781 437.232 237.356 437.798 235.68C438.364 234.004 438.225 232.196 437.406 230.608C437.365 230.49 437.28 230.389 437.165 230.322C437.051 230.255 436.914 230.228 436.779 230.244C436.644 230.26 436.52 230.318 436.428 230.41C436.336 230.501 436.282 230.618 436.276 230.742C436.547 232.67 436.312 234.629 435.591 236.458C434.376 238.383 431.31 238.707 429.17 239.3C424.084 240.712 419.022 242.099 413.945 243.495C406.483 245.548 394.417 247.988 392.001 254.051C391.731 254.712 392.779 255.08 393.308 254.698Z" fill="#191919"/>
<path d="M453.164 140.529C453.341 140.355 453.459 140.138 453.505 139.904C453.551 139.67 453.522 139.429 453.422 139.21C453.322 138.99 453.155 138.802 452.941 138.666C452.727 138.53 452.474 138.453 452.214 138.444C452.038 138.444 451.864 138.475 451.701 138.536C451.538 138.597 451.391 138.686 451.266 138.8C451.142 138.913 451.043 139.047 450.976 139.195C450.909 139.343 450.875 139.502 450.876 139.662C450.879 139.902 450.959 140.136 451.107 140.335C451.254 140.534 451.463 140.689 451.706 140.782C451.949 140.874 452.217 140.899 452.476 140.854C452.735 140.809 452.974 140.696 453.164 140.529Z" fill="#191919"/>
<path d="M462.353 139.61C462.034 139.61 461.727 139.725 461.502 139.931C461.276 140.136 461.149 140.415 461.149 140.706C461.149 140.996 461.276 141.275 461.502 141.481C461.727 141.686 462.034 141.802 462.353 141.802C462.672 141.802 462.978 141.686 463.204 141.481C463.43 141.275 463.557 140.996 463.557 140.706C463.557 140.415 463.43 140.136 463.204 139.931C462.978 139.725 462.672 139.61 462.353 139.61Z" fill="#191919"/>
<path d="M456.227 148.921C456.401 148.918 456.57 148.868 456.714 148.779C456.858 148.689 456.97 148.563 457.036 148.417C457.103 148.27 457.12 148.109 457.088 147.953C457.055 147.797 456.973 147.653 456.852 147.539C456.287 147.025 454.411 146.645 454.561 145.8C456.553 143.54 457.708 140.764 457.862 137.87C457.855 137.721 457.79 137.578 457.679 137.468C457.568 137.357 457.418 137.286 457.255 137.266C457.092 137.247 456.927 137.28 456.788 137.36C456.649 137.441 456.546 137.563 456.497 137.706C455.728 140.427 454.332 142.969 452.402 145.161C451.149 147.03 454.326 149.117 456.227 148.921Z" fill="#191919"/>
<path d="M460.303 149C457.827 151.838 454.641 151.485 452.481 152.276C451.949 152.472 451.799 153.25 452.481 153.386C453.849 153.576 455.244 153.506 456.58 153.179C457.916 152.853 459.163 152.278 460.243 151.49C460.461 153.162 460.215 154.856 459.527 156.418C458.981 157.556 457.974 158.834 456.584 157.77C455.853 157.07 455.286 156.241 454.919 155.335C454.48 154.52 453.188 154.982 453.136 155.767C453.198 156.53 453.45 157.27 453.873 157.931C454.295 158.592 454.877 159.158 455.574 159.584C456.214 160.031 457.01 160.249 457.815 160.199C458.619 160.15 459.375 159.834 459.942 159.313C462.762 156.873 462.416 152.581 461.905 149.373C461.86 149.226 461.774 149.092 461.654 148.985C461.534 148.878 461.385 148.802 461.223 148.764C461.06 148.726 460.889 148.728 460.728 148.769C460.566 148.811 460.419 148.891 460.303 149Z" fill="#191919"/>
<path d="M432.558 199.545C435.373 200.349 438.331 200.651 441.272 200.437C441.475 200.384 441.653 200.272 441.781 200.118C441.908 199.965 441.976 199.777 441.976 199.585C441.976 199.393 441.908 199.206 441.781 199.052C441.653 198.898 441.475 198.786 441.272 198.733C438.866 198.58 436.472 198.29 434.106 197.865C436.748 187.428 441.067 171.972 452.629 169.663C453.434 169.502 453.224 168.421 452.451 168.391C445.733 168.192 441.119 174.424 438.416 179.27C435.331 185.351 433.103 191.763 431.785 198.353C431.718 198.604 431.761 198.869 431.906 199.092C432.05 199.314 432.284 199.477 432.558 199.545Z" fill="#191919"/>
<path d="M445.492 190.548C445.443 190.405 445.34 190.282 445.201 190.202C445.063 190.121 444.897 190.088 444.734 190.108C444.571 190.127 444.421 190.198 444.31 190.309C444.199 190.419 444.134 190.562 444.127 190.712C444.127 194.419 442.328 197.801 441.72 201.429C441.231 204.352 441.174 208.765 443.325 211.2C443.449 211.309 443.604 211.381 443.773 211.41C443.942 211.438 444.116 211.421 444.274 211.361C444.432 211.3 444.568 211.199 444.663 211.069C444.759 210.94 444.811 210.787 444.813 210.631C444.583 207.764 442.754 205.818 444.187 200.075C445.405 197.029 445.851 193.772 445.492 190.548Z" fill="#191919"/>
<path d="M400.324 206.007C401.536 207.095 403.477 208.959 405.203 209.173C405.344 209.201 405.491 209.192 405.626 209.147C405.762 209.102 405.881 209.023 405.968 208.918C406.056 208.813 406.109 208.688 406.121 208.557C406.133 208.426 406.103 208.295 406.035 208.179C405.293 206.77 403.183 205.848 401.94 204.824C400.515 203.656 399.538 202.162 398.222 200.952C397.72 200.49 397.035 200.979 397.13 201.549C397.664 203.299 398.779 204.856 400.324 206.007Z" fill="#191919"/>
<path d="M405.471 203.892C406.187 204.68 407.013 205.381 407.928 205.977C408.001 206.012 408.082 206.029 408.165 206.028C408.248 206.026 408.329 206.005 408.4 205.967C408.471 205.929 408.531 205.875 408.573 205.81C408.615 205.745 408.638 205.672 408.64 205.596C408.64 202.9 405.798 202.92 400.524 196.26C400.112 195.741 398.968 196.046 399.273 196.757C400.724 199.529 402.842 201.968 405.471 203.892Z" fill="#191919"/>
<path d="M408.266 199.968C409.511 201.188 411.594 203.73 413.677 203.569C413.831 203.561 413.98 203.514 414.106 203.433C414.232 203.351 414.33 203.239 414.389 203.109C414.449 202.98 414.466 202.837 414.44 202.698C414.414 202.56 414.345 202.431 414.242 202.326C413.568 201.613 412.522 201.208 411.744 200.539C408.637 197.866 406.582 195.537 404.4 193.42C404.29 193.323 404.144 193.265 403.99 193.256C403.837 193.248 403.685 193.291 403.562 193.376C403.44 193.461 403.355 193.583 403.323 193.72C403.291 193.857 403.314 194 403.388 194.123C404.786 196.221 406.421 198.179 408.266 199.968Z" fill="#191919"/>
<path d="M423.371 210.199C423.435 210.399 423.567 210.575 423.749 210.701C423.931 210.828 424.152 210.898 424.381 210.902C428.868 210.72 433.358 211.205 437.673 212.339C458.834 217.085 467.51 224.932 471.897 226.195C472.347 226.324 472.849 225.817 472.552 225.437C471.259 224.009 469.673 222.823 467.884 221.946C452.503 212.96 433.849 208.551 425.124 208.981C422.869 203.639 419.334 198.822 414.777 194.879C414.277 194.414 413.327 195.035 413.767 195.582C417.834 199.937 421.08 204.877 423.371 210.199Z" fill="#191919"/>
<path d="M437.523 201.618C437.144 203.464 437.175 205.36 437.614 207.194C437.655 207.312 437.737 207.414 437.847 207.486C437.956 207.559 438.088 207.598 438.224 207.598C438.359 207.598 438.491 207.559 438.601 207.486C438.71 207.414 438.792 207.312 438.834 207.194C439.115 205.346 439.145 203.473 438.921 201.618C438.921 201.449 438.848 201.288 438.717 201.168C438.586 201.049 438.408 200.982 438.222 200.982C438.037 200.982 437.859 201.049 437.728 201.168C437.597 201.288 437.523 201.449 437.523 201.618Z" fill="#191919"/>
<path d="M510.237 169.87C507.641 168.451 506.92 165.481 506.254 162.994C503.076 151.113 506.418 143.611 507.652 133.951C508.973 123.586 505.421 108.065 491.272 107.399C488.993 107.306 486.722 107.7 484.641 108.551C482.56 109.402 480.727 110.685 479.29 112.297C480.917 112.734 482.307 113.709 483.185 115.031C484.848 117.811 483.295 119.779 482.025 119.387C481.233 119.138 481.495 118.286 479.942 116.653C468.517 104.646 443.254 116.121 450 130.756C450.151 130.965 450.32 131.163 450.505 131.35C447.407 138.665 446.118 146.511 446.729 154.331C447.548 159.507 450.387 165.074 455.945 165.185C456.764 167.658 455.53 168.302 456.218 169.325C456.732 170.093 458.498 169.865 458.361 167.134C458.326 166.417 458.155 165.712 457.856 165.049C459.75 164.685 461.523 163.918 463.03 162.812C465.847 160.61 468.345 158.091 470.464 155.315C470.196 157.719 470.963 160.124 472.604 162.024C472.724 162.204 472.905 162.343 473.12 162.421C473.334 162.499 473.571 162.512 473.794 162.457C473.95 162.419 474.094 162.348 474.215 162.25C474.336 162.153 474.43 162.031 474.491 161.895C474.551 161.758 474.576 161.611 474.563 161.465C474.55 161.318 474.5 161.176 474.417 161.05C472.889 159.293 472.052 157.121 472.039 154.88C472.042 154.78 472.019 154.681 471.972 154.59C471.925 154.5 471.855 154.421 471.768 154.36C471.681 154.299 471.579 154.258 471.471 154.24C471.363 154.222 471.251 154.228 471.146 154.256C471.333 153.949 471.502 153.633 471.651 153.31C474.509 154.763 478.217 152.119 477.897 148.031C481.349 147.204 484.389 145.333 486.519 142.726C487.026 149.761 488.225 158.682 492.497 164.514C487.462 162.183 481.844 161.092 476.202 161.348C475.992 161.35 475.786 161.401 475.604 161.495C475.422 161.59 475.27 161.726 475.162 161.89C473.544 165.634 470.712 168.841 467.043 171.085C465.299 172.072 463.236 172.486 461.198 172.26C459.159 172.035 457.267 171.181 455.834 169.842C455.118 169.139 453.778 170.061 454.376 170.871C455.801 172.566 457.827 173.759 460.109 174.248C462.392 174.736 464.79 174.49 466.895 173.55C471.457 171.435 475.033 167.901 476.975 163.59C482.205 163.397 487.389 164.551 491.932 166.917C502.077 173.088 508.815 188.358 501.001 206.628C491.734 204.811 482.254 204.056 472.781 204.379C475.348 198.375 476.366 197.398 477.392 194.583C477.775 193.524 476.205 193.122 475.577 193.877C473.216 197.515 471.226 201.341 469.631 205.308C469.58 205.483 469.573 205.666 469.612 205.844C469.65 206.021 469.733 206.188 469.853 206.332C469.974 206.476 470.129 206.593 470.306 206.674C470.484 206.755 470.68 206.798 470.879 206.799C471.861 206.769 472.811 206.747 473.794 206.72C472.992 208.75 472.429 210.892 471.474 212.89C469.456 217.09 468.094 217.765 468.113 219.415C468.115 219.495 468.136 219.572 468.175 219.643C468.214 219.714 468.27 219.776 468.338 219.825C468.406 219.874 468.486 219.908 468.571 219.926C468.655 219.944 468.743 219.944 468.828 219.927C469.941 219.415 470.809 218.549 471.266 217.492C473.402 214.153 474.91 210.512 475.727 206.72C482.742 206.686 489.746 207.212 496.661 208.29C493.895 215.994 489.712 223.214 484.291 229.644C480.196 234.204 474.755 238.89 458.181 235.329C444.57 232.405 434.018 224.614 423.63 216.195C421.93 214.818 412.437 218.404 405.7 215.412C403.607 214.412 401.732 213.072 400.169 211.459C397.466 208.834 397.226 207.776 395.648 207.234C395.525 207.206 395.397 207.203 395.273 207.227C395.149 207.25 395.033 207.299 394.933 207.369C394.833 207.44 394.751 207.53 394.695 207.633C394.639 207.736 394.609 207.849 394.608 207.965C394.777 208.978 395.311 209.911 396.126 210.619C398.385 213.525 401.382 215.893 404.862 217.519C410.197 219.387 416.098 219.415 421.455 217.599C428.923 224.138 437.373 229.679 446.552 234.057C445.206 234.159 446.041 235.926 446.224 238.684C442.803 238.036 440.764 242.412 439.945 245.533C430.876 246.957 410.062 250.707 401.179 253.654C392.05 256.678 387.933 260.237 384.914 264.426C386.688 278.218 388.236 310.476 388.779 324.812C393.084 336.74 398.422 348.317 404.34 363.275C404.703 364.192 406.388 364.41 406.631 363.275C407.373 359.781 408.17 355.114 409.361 351.58C414.949 360.864 420.745 370.056 426.486 379.271C426.619 379.476 426.821 379.637 427.063 379.73C427.304 379.823 427.572 379.842 427.826 379.785L430.537 378.806C430.919 380.504 431.467 382.167 432.175 383.776C431.489 383.962 430.857 384.288 430.329 384.729C429.801 385.17 429.389 385.714 429.126 386.32C427.825 388.952 426.198 391.44 424.277 393.736C417.641 401.322 412.443 401.688 407.865 404.941C403.286 408.193 404.198 413.345 406.052 413.305C409.74 413.223 413.456 412.997 417.141 412.845C429.836 412.319 429.672 413.156 433.942 407.053C435.552 404.754 437.155 402.478 438.64 400.125C438.7 403.641 438.79 407.132 438.82 410.651C438.827 410.913 438.944 411.162 439.148 411.347C439.351 411.532 439.625 411.639 439.912 411.645C442.642 411.501 445.372 411.215 448.102 410.9C448.336 410.841 448.542 410.713 448.687 410.537C448.833 410.36 448.909 410.144 448.905 409.923C449.017 402.706 448.69 395.488 447.925 388.304C447.709 386.383 447.949 382.275 445.277 381.537C442.405 380.742 445.664 384.134 441.078 375.021C441.323 374.898 441.521 374.709 441.645 374.48C441.768 374.251 441.812 373.993 441.769 373.741C435.935 343.708 431.141 319.891 419.615 292.758C419.823 292.659 419.998 292.509 420.12 292.325C450.237 291.982 496.966 289.366 501.031 262.794C502.028 256.268 499.12 244.556 494.752 242.007C496.268 231.803 498.681 221.759 500.253 211.585C500.288 211.435 500.259 211.278 500.171 211.146C500.083 211.014 499.943 210.918 499.781 210.877C499.618 210.835 499.444 210.852 499.294 210.923C499.144 210.994 499.029 211.114 498.973 211.26C495.776 221.124 493.583 231.235 492.421 241.465C491.736 241.52 491.056 241.661 490.368 241.736C481.586 242.688 453.101 242.273 448.053 239.435C448.053 231.95 442.929 234.425 456.319 237.541C462.731 239.181 469.497 239.303 475.975 237.894C482.304 236.311 486.257 231.259 489.683 226.463C493.809 221.158 496.555 215.067 497.712 208.653C498.899 208.842 500.09 209.056 501.28 209.304C501.615 209.379 501.968 209.333 502.267 209.177C502.566 209.02 502.788 208.765 502.885 208.464C508.572 195.617 508.684 181.549 499.609 170.652C502.773 172.085 506.357 172.559 509.838 172.007C510.081 171.948 510.3 171.828 510.47 171.659C510.639 171.49 510.752 171.28 510.794 171.055C510.836 170.83 510.806 170.598 510.707 170.388C510.608 170.177 510.445 169.998 510.237 169.87ZM472.315 151.088C471.564 149.982 469.669 150.899 470.204 151.98C468.416 153.72 465.195 158.777 460.838 161.508C456.33 164.333 452.164 163.351 449.918 157.532C448.548 153.253 448.314 148.738 449.235 144.361C449.822 140.149 450.642 135.966 451.692 131.829C452.104 131.782 459.912 126.203 467.155 131.829C471.343 135.082 471.687 140.348 471.021 145C470.892 145.892 471.583 146.739 472.658 146.491C474.763 145.976 475.864 146.771 475.749 148.521C475.692 149.649 473.731 153.175 472.315 151.088ZM487.895 141.478C487.788 141.649 487.618 141.778 487.416 141.843C487.213 141.908 486.991 141.903 486.791 141.831C486.592 141.759 486.428 141.623 486.329 141.449C486.231 141.275 486.205 141.074 486.257 140.885C487.569 137.541 488.145 133.994 487.952 130.448C487.666 126.799 486.531 123.247 484.621 120.028C484.539 119.888 484.519 119.725 484.566 119.573C484.613 119.42 484.723 119.29 484.873 119.209C485.022 119.129 485.201 119.104 485.37 119.14C485.54 119.177 485.687 119.271 485.782 119.404C491.045 126.486 491.07 136.548 487.895 141.476V141.478ZM442.304 382.588C441.146 384.131 440.862 384.683 440.152 385.133C439.668 385.505 439.065 385.724 438.433 385.759C437.801 385.793 437.174 385.641 436.644 385.324C435.893 384.599 434.964 384.047 433.933 383.711C433.64 381.807 433.049 379.951 432.178 378.199C440.9 375.053 437.84 376.169 439.377 375.605C441.203 379.892 441.255 381.492 442.293 382.586L442.304 382.588ZM460.849 254.292C461.116 254.305 461.367 254.41 461.551 254.587C461.735 254.763 461.838 254.997 461.838 255.24C461.838 255.484 461.735 255.718 461.551 255.894C461.367 256.071 461.116 256.176 460.849 256.189C439.388 257.019 404.791 259.419 394.152 276.406C386.508 288.608 392.721 306.634 397.155 319.633C402.664 335.786 406.194 341.253 409.11 348.973C409.344 349.595 408.331 349.923 407.979 349.406C402.547 341.454 396.128 324.307 393.259 315.329C390.147 305.608 386.841 295.409 388.443 285.176C391.291 266.976 411.902 259.171 431.736 255.605C441.321 253.929 451.117 253.487 460.838 254.29L460.849 254.292Z" fill="#191919"/>
<path d="M106.986 136.198C107.701 136.061 107.611 135.144 106.986 134.955C103.03 133.745 101.9 139.207 102.795 141.615C103.34 143.004 104.387 144.184 105.764 144.961C107.141 145.738 108.768 146.066 110.377 145.892C110.584 147.298 110.786 148.68 110.942 150.087C111 151.676 111.189 153.259 111.507 154.823C111.845 156.011 113.595 155.636 113.737 154.552C113.607 151.122 113.219 147.704 112.577 144.321C112.491 144.04 112.287 143.801 112.01 143.654C111.732 143.507 111.403 143.465 111.092 143.536C104.723 145.146 102.539 137.048 106.986 136.198Z" fill="#191919"/>
<path d="M134.788 121.934C134.403 121.034 132.304 116.139 131.728 115.304C134.202 112.722 136.155 109.762 137.497 106.562C138.101 105.068 138.165 103.436 137.678 101.907C137.19 100.378 136.178 99.0306 134.788 98.063C131.632 96.2291 127.559 97.3498 124.562 98.9278C121.136 100.732 118.255 103.309 114.717 104.936C110.554 106.852 106.126 106.075 101.695 106.641C99.8437 106.778 98.0665 107.366 96.5495 108.342C95.0324 109.318 93.8312 110.647 93.0712 112.19C89.2083 120.339 95.1515 129.376 100.893 135.388C101.458 136.091 102.667 135.201 102.17 134.466C98.3183 128.75 93.1613 122.786 94.5263 115.58C94.7017 114.025 95.4156 112.561 96.5649 111.4C97.7142 110.238 99.2393 109.439 100.92 109.119C104.605 108.373 108.471 109.064 112.159 108.281C119.069 106.81 123.68 100.796 129.358 99.6733C130.131 99.4594 130.952 99.4327 131.739 99.596C132.527 99.7593 133.254 100.107 133.849 100.604C134.444 101.102 134.885 101.732 135.131 102.432C135.376 103.133 135.416 103.88 135.247 104.599C134.953 106.211 134.295 107.75 133.314 109.119C130.65 113.269 129.653 114.635 125.225 115.858C118.696 117.656 111.98 118.835 105.184 119.377C104.442 119.436 103.53 120.122 103.907 120.92C105.818 124.896 107.327 129.004 105.244 133.236C104.791 134.155 106.044 135.263 106.882 134.399C110.407 130.761 108.905 125.793 107.09 121.653C113.164 121.069 126.44 118.885 130.431 116.32C131.507 121.002 137.456 131.23 138.46 139.868C138.914 141.794 138.739 143.798 137.955 145.633C136.08 148.732 130.467 149.232 124.455 150.422C123.203 150.513 121.987 150.846 120.887 151.399C120.749 151.479 120.639 151.593 120.571 151.729C120.502 151.864 120.477 152.014 120.499 152.162C120.52 152.31 120.588 152.449 120.694 152.563C120.799 152.677 120.938 152.761 121.095 152.805C124.908 152.412 128.684 151.766 132.394 150.874C133.658 153.275 134.051 155.986 135.427 155.268C136.746 154.579 134.797 151.901 133.694 150.531C141.723 148.272 144.128 143.705 134.788 121.934Z" fill="#191919"/>
<path d="M114.867 133.574C115.271 133.905 115.753 134.147 116.275 134.282C116.798 134.416 117.348 134.44 117.882 134.351C118.416 134.262 118.921 134.062 119.357 133.768C119.794 133.473 120.15 133.091 120.398 132.652C120.816 131.814 121.015 130.306 120.161 129.647C120.071 129.568 119.963 129.509 119.845 129.474C119.726 129.439 119.6 129.428 119.477 129.444C119.353 129.46 119.235 129.501 119.132 129.565C119.029 129.629 118.943 129.713 118.881 129.811C118.19 130.771 119.328 132.607 117.305 132.652C115.817 132.686 115.378 131.26 114.182 130.84C113.538 130.611 112.809 132.006 114.867 133.574Z" fill="#191919"/>
<path d="M129.852 128.865C129.17 128.827 128.629 128.084 128.1 127.781C127.982 127.72 127.846 127.691 127.711 127.699C127.575 127.707 127.445 127.751 127.336 127.826C127.228 127.902 127.147 128.004 127.102 128.121C127.058 128.238 127.053 128.365 127.087 128.485C127.302 129.133 127.751 129.696 128.36 130.084C128.97 130.472 129.705 130.662 130.448 130.624C131.195 130.46 131.843 130.037 132.253 129.446C132.664 128.854 132.806 128.141 132.648 127.456C132.511 126.268 130.464 126.265 130.598 127.456C130.658 127.978 130.688 128.907 129.852 128.865Z" fill="#191919"/>
<path d="M122.004 124.101C121.526 123.778 121.054 124.369 121.261 124.777C122.514 127.237 124.42 129.456 125.929 131.787C129.099 136.687 128.346 136.076 126.702 136.17C125.839 136.22 124.977 136.208 124.114 136.252C123.83 136.252 123.558 136.355 123.357 136.538C123.157 136.72 123.044 136.968 123.044 137.226C123.044 137.485 123.157 137.733 123.357 137.915C123.558 138.098 123.83 138.201 124.114 138.201C125.355 138.249 126.597 138.213 127.832 138.094C128.561 138.135 129.286 137.975 129.913 137.634C131.278 136.543 130.035 134.463 129.407 133.303C127.736 129.765 125.205 126.618 122.004 124.101Z" fill="#191919"/>
<path d="M143.442 167.812C140.53 166.729 137.554 165.754 134.521 164.917C134.521 164.89 134.551 164.89 134.551 164.862C135.034 164.03 138.919 155.044 139.219 154.279C139.61 153.252 137.767 152.522 137.259 153.533C135.809 156.379 134.625 159.348 133.363 162.275C133 163.113 132.817 164.263 131.578 164.117C130.815 163.929 130.077 163.666 129.377 163.332C121.864 160.836 114.69 157.562 107.999 153.573C106.866 152.982 103.412 158.613 102.2 160.34C101.157 161.831 103.661 161.373 126.85 175.55C127.304 175.038 127.813 174.567 128.367 174.144C120.576 169.325 112.607 164.723 104.401 160.476C105.471 158.826 106.536 157.199 107.464 155.506C107.909 154.686 105.924 155.258 116.235 160.215C121.176 162.476 126.248 164.49 131.43 166.246C131.703 166.246 131.627 165.971 129.498 173.393C130.318 172.863 131.194 172.41 132.113 172.039C132.618 170.299 133.126 168.548 133.631 166.82C144.352 169.713 140.985 169.852 145.703 169.852C145.232 165.202 144.503 160.576 143.519 155.993C143.29 154.965 141.335 155.181 141.466 156.242C142.001 160.034 142.76 163.916 143.442 167.812Z" fill="#191919"/>
<path d="M236.513 412.035C235.719 412.035 204.717 411.645 196.402 411.603C193.582 411.588 194.586 412.376 192.416 406.596C192.345 406.395 192.207 406.22 192.02 406.096C191.833 405.971 191.607 405.904 191.376 405.904C191.144 405.904 190.919 405.971 190.732 406.096C190.545 406.22 190.406 406.395 190.336 406.596C189.82 408.335 189.295 410.06 188.788 411.792C186.022 411.576 183.287 411.359 180.521 411.168C183.085 398.557 184.753 395.888 185.25 391.139C185.246 391.007 185.195 390.879 185.105 390.775C185.014 390.671 184.889 390.597 184.749 390.563C184.608 390.53 184.459 390.539 184.325 390.589C184.19 390.639 184.077 390.727 184.002 390.841C181.561 395.284 179.115 406.862 178.083 411.819C178.042 411.97 178.039 412.127 178.073 412.28C178.107 412.432 178.177 412.576 178.28 412.7C178.382 412.824 178.514 412.927 178.665 412.999C178.816 413.071 178.983 413.112 179.153 413.119C182.629 413.434 186.082 413.683 189.563 413.904C189.806 413.904 190.043 413.831 190.236 413.696C190.43 413.561 190.569 413.372 190.633 413.159C190.906 412.214 191.179 411.292 191.436 410.346C191.618 411.137 191.919 411.902 192.328 412.619C193.328 414.058 195.984 413.613 197.532 413.648C202.762 413.792 236.634 414.215 236.721 414.215C236.691 413.979 236.513 412.301 236.513 412.035Z" fill="#191919"/>
<path d="M207.016 394.901C205.589 393.209 203.622 391.96 201.384 391.325C201.673 388.959 202.476 382.215 202.768 379.71C209.407 380.063 216.841 380.456 222.241 380.719C222.547 380.715 222.84 380.602 223.056 380.405C223.273 380.208 223.396 379.942 223.401 379.663C223.401 333.243 222.541 310.811 226.702 289.748C229.377 293.24 232.023 296.731 234.701 300.185C234.521 286.192 234.36 271.874 234.343 257.746C234.346 256.926 234.649 256.13 235.203 255.483C235.758 254.836 236.533 254.375 237.406 254.173C232.517 246.296 224.395 233.475 214.66 232.708C212.942 232.604 211.219 232.788 209.574 233.249C210.579 232.184 211.438 231.012 212.132 229.758C216.844 221.354 214.652 211.821 212.249 202.691C206.677 181.494 198.01 169.641 182.35 155.814C179.102 152.899 175.682 150.148 172.105 147.572C167.308 144.224 162.004 142.137 156.23 143.767C152.935 144.699 141.125 151.47 144.007 153.106C144.027 153.185 146.792 164.335 148.141 169.805C149.285 169.875 150.401 170.161 151.417 170.645C152.203 170.985 152.813 171.589 153.119 172.331C153.425 173.073 153.402 173.894 153.055 174.621C153.347 174.621 155.342 174.688 155.88 174.755C158.88 174.062 161.982 173.811 165.069 174.009C166.019 174.059 166.838 174.009 167.507 174.755C167.622 174.864 167.686 175.009 167.686 175.16C167.686 175.311 167.622 175.456 167.507 175.565C166.246 176.532 166.039 175.617 159.568 176.062C159.921 176.324 160.209 176.651 160.413 177.021C160.617 177.392 160.733 177.797 160.752 178.211C160.772 178.625 160.695 179.039 160.527 179.424C160.359 179.809 160.103 180.157 159.776 180.446C159.91 180.552 160.021 180.68 160.104 180.823C160.603 180.369 162.015 180.475 162.869 180.446C165.501 180.356 165.643 181.984 162.869 181.937C162.091 181.984 161.31 181.93 160.549 181.775C160.719 182.572 160.557 183.398 160.096 184.093C159.634 184.788 158.905 185.302 158.051 185.535C158.211 185.79 158.332 186.064 158.408 186.35C159.601 186.048 160.813 185.813 162.036 185.644C162.187 185.609 162.344 185.606 162.496 185.634C162.648 185.663 162.791 185.722 162.915 185.808C163.038 185.895 163.138 186.005 163.207 186.132C163.276 186.258 163.313 186.397 163.314 186.539C163.041 190.599 170.745 192.873 169.618 194.575C172.561 192.871 175.624 191.33 178.687 189.759C176.781 188.109 175.625 185.868 175.446 183.48C174.829 178.378 176.934 175.528 175.654 173.438C173.904 170.593 169.083 170.722 166.019 170.759C164.167 170.769 162.322 170.968 160.519 171.353C159.028 171.904 157.429 172.172 155.82 172.138C155.702 172.106 155.594 172.05 155.503 171.974C155.412 171.898 155.341 171.805 155.296 171.701C155.25 171.597 155.231 171.484 155.239 171.373C155.248 171.261 155.284 171.152 155.345 171.055C156.71 168.905 162.795 168.373 165.514 168.321C168.935 168.257 173.213 168.269 176.011 170.352C179.249 172.762 178.269 175.928 177.854 179.23C177.432 180.908 177.445 182.651 177.893 184.323C178.341 185.994 179.211 187.548 180.434 188.86C180.849 188.644 181.294 188.427 181.712 188.184C181.876 188.092 182.065 188.044 182.258 188.044C182.45 188.044 182.639 188.092 182.804 188.184C190.154 192.32 196.754 197.47 202.369 203.449C204.309 205.211 205.872 207.285 206.978 209.567C207.251 210.298 206.232 210.623 205.7 210.243C202.107 207.671 198.089 199.525 182.208 190.241C177.065 192.893 171.952 195.788 166.568 197.982C166.295 198.064 177.98 220.511 187.472 229.867C188.81 231.431 190.494 232.72 192.416 233.653C194.337 234.585 196.452 235.14 198.624 235.28C199.517 235.439 199.276 236.47 198.624 236.713C194.638 238.204 189.888 235.039 187.117 232.683C180.546 226.382 175.16 219.139 171.176 211.245C168.935 207.244 166.988 203.111 165.351 198.874C165.361 198.182 165.548 197.502 165.897 196.886C166.888 196.25 167.887 195.644 168.9 195.045C167.769 195.182 166.961 194.347 166.134 193.748C163.735 192.35 162.012 190.171 161.316 187.657C157.589 188.082 158.657 187.573 158.313 188.199C157.144 190.321 155.924 189.839 152.694 190.391C152.784 190.639 155.569 207.013 156.737 228.15C153.527 224.983 150.186 221.933 146.716 219C146.858 218.208 147.638 208.496 147.728 202.219C147.728 201.292 146.62 201.101 145.853 200.785C145.992 200.537 147.491 197.247 147.876 196.21C148.844 193.793 148.781 191.133 147.698 188.755C150.314 188.46 152.959 188.206 155.577 187.836C156.557 187.699 156.232 186.417 155.37 186.345C152.172 186.159 148.961 186.296 145.796 186.753C144.96 186.852 144.193 187.642 144.753 188.403C147.772 192.488 144.985 196.775 143.475 199.906C138.062 198.057 132.211 196.499 131.938 196.442C133.871 189.064 127.78 183.375 131.045 179.009C133.601 175.597 140.996 174.733 145.498 174.626C147.174 174.847 148.882 174.762 150.521 174.377C150.646 174.31 150.753 174.218 150.832 174.108C150.912 173.997 150.963 173.872 150.98 173.741C150.997 173.61 150.981 173.477 150.933 173.352C150.885 173.228 150.805 173.115 150.701 173.023C149.117 172.194 147.284 171.846 145.468 172.029C140.246 171.867 133.12 172.921 129.38 176.36C128.149 177.728 127.338 179.369 127.03 181.115C126.722 182.861 126.928 184.65 127.627 186.3C129.35 192.277 129.317 191.27 129.083 196.476C128.867 196.568 128.667 196.686 128.487 196.827C128.056 196.33 107.155 169.807 102.471 163.59C94.6709 153.235 97.6357 156.937 96.3499 155.312C95.5527 154.306 93.6363 154.701 92.3614 154.815C79.4375 156.013 68.7114 165.252 68.452 184.777C68.1408 208.539 73.8956 243.957 94.5017 258.4C99.6444 262.12 105.532 264.896 111.837 266.573C112.187 267.281 112.547 267.995 112.905 268.705C119.184 267.604 127.952 267.356 143.298 267.033C164.963 266.578 189.571 264.665 198.444 282.731C204.229 279.871 209.678 276.48 214.704 272.609C214.833 272.498 214.988 272.414 215.157 272.364C215.327 272.314 215.506 272.298 215.683 272.319C215.859 272.34 216.029 272.396 216.179 272.483C216.328 272.571 216.455 272.688 216.549 272.825C219.736 276.646 222.646 280.651 225.26 284.816C225.741 285.708 224.422 286.821 223.655 285.954C220.646 282.43 217.847 278.762 215.269 274.965C210.528 278.885 205.026 281.965 199.044 284.048C203.008 293.429 201.774 305.667 198.916 318.326C198.643 319.543 196.033 330.545 194.335 330.91C192.33 331.35 190.293 331.656 188.239 331.827C184.87 347.544 181.288 363.138 180.45 377.494C180.458 377.778 180.585 378.049 180.807 378.25C181.028 378.452 181.325 378.568 181.638 378.575C183.896 378.726 186.159 378.823 188.449 378.927C188.299 379.847 187.562 385.043 187.319 386.723C186.996 388.197 186.807 389.693 186.754 391.196C183.562 391.519 190.248 400.055 195.49 396.69C199.132 394.354 199.669 391.807 204.261 395.987C208.056 399.863 213.144 402.497 218.744 403.484C224.725 404.975 234.193 406.561 235.899 406.948C235.782 406.136 235.722 405.296 235.692 404.486C224.199 402.04 213.603 401.198 207.016 394.901ZM98.9898 194.148C104.313 178.853 104.133 180.078 103.983 179.829C97.535 178.251 90.9784 177.066 84.357 176.283C83.7318 176.206 83.0821 175.717 83.3442 175.066C85.639 169.105 88.4535 163.322 91.7608 157.77C92.1784 157.097 93.4888 157.556 93.1585 158.312C90.7588 163.779 88.1026 169.084 85.8121 174.551C91.6406 175.344 94.5481 175.819 100.68 177.014C103.65 177.595 106.819 177.685 106.093 180.371C105.921 181.005 101.425 193.735 101.335 193.986C107.072 196.97 112.585 200.298 117.838 203.946C118.348 204.485 117.865 205.576 117.019 205.273C114.035 203.808 111.173 202.147 108.455 200.303C99.5494 195.115 98.6622 195.333 98.9898 194.148ZM111.548 231.853C109.306 237.904 109.121 240.692 107.98 242.787C107.595 243.493 106.552 243.085 106.492 242.436C106.219 239.601 109.014 231.731 110.09 229.117C108.242 227.996 106.249 223.578 105.482 221.893C104.106 219.575 103.526 216.935 103.816 214.314C103.975 213.665 105.009 213.851 105.037 214.475C105.228 218.988 110.243 225.894 110.953 227.116C115.198 217.487 120.32 208.197 126.265 199.344C126.396 199.143 126.608 198.997 126.857 198.939C127.105 198.881 127.368 198.915 127.589 199.033C127.81 199.152 127.97 199.346 128.034 199.572C128.098 199.798 128.061 200.038 127.931 200.239C125.364 205.648 116.98 217.152 111.537 231.85L111.548 231.853ZM145.326 231.068C143.472 240.245 139.552 251.755 133.254 259.081C129.063 263.954 122.154 268.064 115.146 265.875C114.995 265.832 114.865 265.742 114.779 265.621C114.694 265.499 114.659 265.354 114.68 265.211C114.702 265.068 114.778 264.937 114.896 264.841C115.014 264.744 115.165 264.689 115.323 264.685C123.333 264.518 129.315 262.637 135.187 252.314C138.751 245.697 141.302 238.666 142.771 231.418C143.901 225.951 143.543 225.516 144.316 223.963C144.415 223.815 144.56 223.696 144.732 223.621C144.904 223.547 145.096 223.519 145.285 223.542C145.474 223.565 145.651 223.637 145.796 223.751C145.94 223.864 146.045 224.013 146.099 224.179C146.311 226.5 146.046 228.836 145.315 231.068H145.326ZM199.446 238.997C190.978 242.226 182.768 245.989 174.876 250.257C161.176 258.127 156.858 263.551 153.229 265.631C153.067 265.712 152.881 265.743 152.698 265.72C152.514 265.696 152.345 265.619 152.214 265.5C152.083 265.381 151.998 265.226 151.972 265.059C151.946 264.893 151.98 264.723 152.069 264.575C155.269 259.886 177.69 242.866 198.872 237.779C199.642 237.593 200.21 238.679 199.435 238.997H199.446ZM198.921 391.328C196.948 391.74 195.992 392.764 193.527 394.864C191.799 395.649 189.618 393.671 188.324 392.344C188.948 390.809 189.28 389.189 189.306 387.553C189.56 385.684 190.286 380.028 190.398 379.054C192.839 379.174 196.462 379.362 200.527 379.579C200.244 383.525 199.704 387.452 198.911 391.34L198.921 391.328Z" fill="#191919"/>
<path d="M180.227 268.961C169.951 266.114 157.977 266.757 143.295 267.065C127.95 267.388 119.189 267.637 112.902 268.738C112.544 268.027 112.184 267.314 111.835 266.606C105.53 264.931 99.6425 262.158 94.4991 258.44C73.833 243.962 68.1382 208.432 68.4494 184.817C68.7087 165.282 79.4349 156.053 92.3587 154.855C96.6366 154.46 95.3972 154.144 99.8307 160.106C100.088 159.359 100.476 158.655 100.98 158.021C102.213 156.121 103.564 154.287 105.026 152.527C105.417 152.01 105.983 151.624 106.638 151.429C107.293 151.233 108 151.239 108.651 151.446C108.589 150.579 108.589 150.173 108.266 147.967C106.964 147.833 105.709 147.448 104.583 146.838C103.457 146.228 102.487 145.406 101.738 144.427C100.989 143.449 100.477 142.336 100.238 141.163C99.9985 139.991 100.037 138.785 100.349 137.627C99.8271 137.464 99.3636 137.174 99.009 136.789C90.4832 127.443 87.3792 118.544 90.8026 111.318C91.7297 109.439 93.1886 107.818 95.0301 106.62C96.8717 105.423 99.0296 104.693 101.283 104.504C105.613 103.94 110.093 104.599 113.568 102.988C116.77 101.497 120.022 98.7638 123.29 97.0243C134.21 91.1945 142.522 98.4656 139.705 107.176C138.437 110.207 136.69 113.053 134.518 115.624C137.944 122.709 142.932 134.317 143.142 142.015C143.343 143.74 143.013 145.481 142.188 147.044C141.364 148.607 140.078 149.931 138.474 150.867C139.176 150.935 139.84 151.188 140.385 151.597C140.929 152.006 141.33 152.551 141.537 153.165C142.377 152.948 143.274 153.014 144.065 153.352L144.005 153.103C141.122 151.463 152.932 144.697 156.227 143.765C165.924 141.031 174.518 148.911 182.348 155.812C181.548 150.262 180.402 144.758 178.913 139.326C173.614 120.204 160.895 94.5567 141.209 86.545C107.199 72.711 32.8939 98.5376 17.6031 136.551C9.51414 156.657 15.3618 187.948 21.5889 208.603C28.9994 232.415 39.2592 255.415 52.184 277.189C69.0937 306.184 89.2766 331.405 125.662 332.853C125.542 341.486 125.809 371.043 125.935 374.832C120.71 372.68 116.347 371.075 104.851 366.687C102.28 365.579 99.5892 364.717 96.8223 364.115C92.6017 363.382 87.4284 364.251 85.1679 367.959C84.7024 368.792 84.4301 369.703 84.3678 370.636C84.3056 371.569 84.4547 372.504 84.8059 373.382C85.1572 374.261 85.7031 375.064 86.4097 375.742C87.1163 376.42 87.9685 376.959 88.9135 377.325C89.8823 377.636 90.9123 377.759 91.9366 377.685C92.9609 377.611 93.9567 377.342 94.8594 376.895C95.7621 376.449 96.5516 375.834 97.1766 375.092C97.8016 374.349 98.2483 373.496 98.4876 372.586C106.844 375.131 115.231 377.648 123.705 379.792C115.905 383.233 108.435 387.262 101.373 391.837C97.9279 394.442 95.2962 398.636 97.2099 402.719C98.7469 405.997 103.931 409.18 107.647 406.643C110.399 404.757 112.015 399.312 108.509 397.061C115.315 391.355 122.537 386.075 130.126 381.256C143.41 384.084 156.514 385.533 167.622 389.954C164.158 395.351 166.415 399.29 170.418 400.294C175.332 401.536 179.377 397.694 179.904 393.5C180.51 388.656 176.355 384.507 171.875 382.511C165.905 380.323 159.613 378.946 153.202 378.423C148.086 377.7 142.913 377.124 137.77 376.684C143.685 373.247 149.812 370.106 156.085 367.211C156.314 367.713 156.664 368.163 157.11 368.525C157.556 368.888 158.086 369.154 158.66 369.305C159.234 369.455 159.838 369.486 160.428 369.395C161.017 369.304 161.576 369.094 162.064 368.779C162.709 368.242 163.198 367.566 163.486 366.815C163.774 366.063 163.852 365.257 163.714 364.471C163.575 363.685 163.224 362.942 162.692 362.31C162.16 361.678 161.464 361.176 160.666 360.849C156.536 358.861 151.93 360.772 148.266 362.718C143.242 365.333 138.475 368.339 134.021 371.704C134.051 365.722 133.991 343.554 134.111 333.214C144.01 333.661 184.01 333.169 194.324 330.94C196.022 330.575 198.627 319.573 198.905 318.356C203.89 296.344 203.912 275.524 180.227 268.961ZM111.376 269.034C103.218 270.673 94.6824 269.5 87.4202 265.741C68.5504 256.887 55.0096 232.062 47.3383 214.016C41.6944 200.746 37.7819 186.919 35.6812 172.819C33.6392 159.07 32.5499 144.856 38.7443 131.842C44.3984 120.333 53.5628 110.544 65.1488 103.637C65.2804 103.569 65.4343 103.547 65.5827 103.573C65.731 103.6 65.864 103.674 65.9577 103.782C66.0513 103.89 66.0994 104.025 66.0932 104.162C66.0871 104.3 66.0271 104.431 65.9241 104.531C60.295 109.103 55.0496 114.052 50.2321 119.337C40.8868 129.837 36.2105 143.147 37.1281 156.634C38.4631 192.953 56.0934 232.675 73.6719 251.561C89.7243 268.802 103.508 266.511 110.546 267.369C110.748 267.387 110.942 267.453 111.107 267.561C111.273 267.669 111.405 267.814 111.489 267.982C111.574 268.151 111.609 268.336 111.591 268.521C111.572 268.705 111.501 268.882 111.384 269.034H111.376Z" fill="#663398"/>
</svg>
